<?xml version="1.0" encoding="utf-8"?>
<!-- Generator: Adobe Illustrator 16.0.2, SVG Export Plug-In . SVG Version: 6.00 Build 0)  -->
<!DOCTYPE svg PUBLIC "-//W3C//DTD SVG 1.1//EN" "http://www.w3.org/Graphics/SVG/1.1/DTD/svg11.dtd">
<svg version="1.1" id="圖層_1" xmlns="http://www.w3.org/2000/svg" xmlns:xlink="http://www.w3.org/1999/xlink" x="0px" y="0px"
	 width="180px" height="34.377px" viewBox="0 0 180 34.377" enable-background="new 0 0 180 34.377" xml:space="preserve">
<g>
	<g>
		<path fill-rule="evenodd" clip-rule="evenodd" fill="#3F4A5D" d="M159.485,28.399c-3.291,1.102-6.599,2.154-9.861,3.335
			c-0.968,0.351-1.328,0.197-1.521-0.777c-0.181-0.913-0.443-1.815-0.739-2.699c-0.245-0.731,0.057-0.885,0.715-1.03
			c2.896-0.638,2.891-0.662,2.891-3.636c0-1.429-0.041-2.859,0.016-4.286c0.031-0.791-0.161-1.075-1.023-1.074
			c-2.582,0.003-2.556-0.04-2.492-2.641c0.017-0.682,0.184-0.908,0.897-0.931c2.604-0.083,2.604-0.113,2.604-2.786
			c0-0.357,0.007-0.715-0.001-1.072c-0.021-0.935,0.29-2.117-0.164-2.737c-0.493-0.673-1.743-0.213-2.66-0.235
			c-0.562-0.014-0.74-0.151-0.776-0.746c-0.188-3.04-0.209-3.039,2.778-3.039c2.59,0,5.181,0.034,7.77-0.021
			c0.83-0.018,1.047,0.215,1.047,1.041c0,2.632,0.037,2.677-2.632,2.627c-0.934-0.017-1.221,0.215-1.172,1.166
			c0.083,1.648,0.058,3.305,0.007,4.956c-0.022,0.731,0.257,1.033,0.917,0.85c0.63-0.174,1.762,0.665,1.796-0.805
			c0.033-1.384,0.073-2.77,0.032-4.152c-0.021-0.708,0.206-0.887,0.903-0.908c3.064-0.091,3.061-0.116,3.062,2.874
			c0,2.773-0.208,5.524-0.695,8.259c-0.125,0.703-0.372,0.889-1.039,0.752c-0.521-0.107-1.064-0.137-1.598-0.146
			c-0.97-0.018-1.494-0.372-1.195-1.43c0.162-0.576,0.084-1.02-0.648-0.834c-0.548,0.139-1.547-0.59-1.528,0.77
			c0.031,2.185,0.008,4.371,0.008,6.714c1.443-0.359,2.796-0.695,4.215-1.048c0.226,1.162-0.033,2.337,0.325,3.443
			C159.678,28.267,159.601,28.352,159.485,28.399z"/>
		<path fill-rule="evenodd" clip-rule="evenodd" fill="#3F4A5D" d="M172.682,32.194c-2.055,0-4.111-0.034-6.165,0.017
			c-0.787,0.02-1.08-0.152-1.082-1.016c-0.006-2.583-0.049-2.583,2.587-2.583c2.464,0,2.464,0,2.464-2.399
			c0-2.011-0.043-4.022,0.02-6.031c0.028-0.878-0.118-1.381-1.122-1.184c-1.303,0.256-1.793-0.282-1.565-1.569
			c0.054-0.303,0.054-0.632,0-0.936c-0.202-1.117,0.343-1.431,1.327-1.255c1.141,0.204,1.43-0.271,1.366-1.371
			c-0.099-1.692-0.061-3.395-0.01-5.091c0.022-0.75-0.192-1.097-0.963-0.963c-1.352,0.235-1.854-0.238-1.747-1.68
			c0.141-1.897,0.035-1.905,1.914-1.905c2.815,0,5.63,0.023,8.444-0.016c0.733-0.01,0.978,0.166,0.985,0.946
			c0.024,2.652,0.055,2.74-2.618,2.616c-1.36-0.063-1.649,0.391-1.563,1.635c0.111,1.601,0.077,3.217,0.007,4.823
			c-0.038,0.86,0.264,1.12,1.066,1.007c0.351-0.049,0.713-0.008,1.071-0.008c1.92,0,1.92,0,1.92,1.867c0,1.899,0,1.899-1.899,1.899
			c-2.138,0-2.138,0-2.138,2.165c0,2.145,0.04,4.29-0.02,6.433c-0.023,0.849,0.259,1.113,1.068,1.028
			c0.575-0.06,1.163-0.046,1.741-0.005c0.7,0.049,1.822-0.331,2.011,0.172c0.34,0.899,0.191,2.004,0.15,3.02
			c-0.026,0.636-0.615,0.366-0.951,0.37C176.882,32.207,174.782,32.194,172.682,32.194z"/>
		<path fill-rule="evenodd" clip-rule="evenodd" fill="#3F4A5D" d="M159.485,28.399c0.08-0.083,0.159-0.166,0.238-0.248
			c2.297-2.946,3.074-6.369,3.094-10.011c0.027-4.956,0.043-9.913-0.009-14.869c-0.011-1.036,0.228-1.45,1.313-1.356
			c1.103,0.095,2.227-0.044,3.352,0.334c-0.469,1.169-0.478,2.368-0.473,3.577c0.016,4.198,0.008,8.396,0.005,12.594
			c-0.005,5.936-2.246,11.008-5.968,15.52c-0.411,0.498-0.689,0.584-1.264,0.185c-1.094-0.759-2.273-1.393-3.454-2.102
			C157.34,30.815,158.796,29.936,159.485,28.399z"/>
	</g>
	<path fill-rule="evenodd" clip-rule="evenodd" fill="#3F4A5D" d="M65.914,24.872c-0.667-0.245-1.436-0.859-1.961-0.69
		c-0.772,0.248-0.344,1.318-0.563,2.012c-0.498,1.579-0.771,1.706-2.247,0.949c-2.783-1.427-4.081-3.949-5.089-6.949
		c2.877,0,5.637,0,8.397,0c2.608,0,2.572,0.067,2.599-2.605c0.008-0.853-0.187-1.1-1.087-1.079c-2.724,0.064-5.45,0.041-8.175,0.041
		c-2.628,0-2.6,0.007-2.751-2.606c-0.047-0.812,0.149-1.092,1.007-1.073c2.411,0.056,4.826-0.019,7.236,0.042
		c0.938,0.024,1.332-0.128,1.298-1.21c-0.087-2.856-0.074-5.718-0.006-8.575c0.024-0.996-0.234-1.271-1.253-1.265
		c-7.504,0.047-15.009,0.05-22.513-0.004c-1.062-0.007-1.225,0.331-1.22,1.284c0.039,7.192,0.019,14.385,0.024,21.577
		c0,0.9,0.107,1.934-0.483,2.582c-1.257,1.377-0.557,2.463,0.224,3.629c0.272,0.407,0.55,0.818,0.756,1.259
		c0.345,0.74,0.722,0.908,1.539,0.519c2.37-1.126,4.795-2.137,7.202-3.187c0.896-0.39,2.179-0.526,2.6-1.204
		c0.472-0.76-0.448-1.87-0.534-2.875c-0.067-0.784-0.372-0.925-1.136-0.626c-1.853,0.725-3.749,1.341-5.756,2.046
		c0-2.034,0.03-3.899-0.015-5.763c-0.017-0.719,0.327-0.786,0.895-0.778c1.697,0.021,3.4,0.085,5.091-0.021
		c1.05-0.066,1.428,0.353,1.755,1.277c2.086,5.9,5.83,10.027,12.232,11.291c1.246,0.246,2.095-0.159,2.713-1.175
		c0.66-1.084,0.951-2.3,1.142-3.539C68.21,25.71,68.203,25.712,65.914,24.872z M47.905,17.193c-0.223,0-0.445,0-0.667,0
		c-0.489,0-0.979-0.314-1.468-0.323c-2.009-0.036-1.73,0.117-1.746-1.948c-0.014-1.882-0.003-1.963,1.903-1.963
		c1.246,0,2.492-0.017,3.737-0.051c0.556-0.015,0.733,0.452,0.804,1.032C50.829,16.894,50.852,17.193,47.905,17.193z M51.741,9.193
		c-2.234,0-4.469-0.066-6.703-0.035c-0.609,0.009-0.829-0.146-0.853-0.819c-0.099-2.704-0.129-2.715,2.554-2.715
		c3.888,0,7.775,0.025,11.663-0.027c0.948-0.013,1.31,0.189,1.271,1.254c-0.084,2.295-0.015,2.342-2.301,2.342
		C55.495,9.193,53.618,9.193,51.741,9.193z"/>
	<path fill-rule="evenodd" clip-rule="evenodd" fill="#3F4A5D" d="M29.749,29.037c-2.59,0.063-5.183,0.024-7.774,0.024
		c-3.241,0-3.212,0.001-3.07-3.262c0.03-0.699,0.287-0.785,0.872-0.775c1.832,0.029,3.664,0.011,5.497,0.011
		c2.894,0,2.869,0.001,2.741-2.952c-0.028-0.654-0.222-0.834-0.852-0.823c-1.876,0.034-3.753,0.013-5.63,0.013
		c-2.813,0-2.786,0.001-2.625-2.773c0.036-0.62,0.248-0.729,0.791-0.719c1.653,0.027,3.307-0.01,4.96,0.018
		c0.919,0.016,1.916,0.229,1.721-1.294c1.135,0.555,2.133,1.05,3.137,1.53c0.292,0.139,0.598,0.447,0.883-0.059
		c0.795-1.41,1.612-2.807,2.452-4.263c-0.295-0.095-0.504-0.162-0.711-0.23c-4.853-1.594-9.087-4.095-12.228-8.241
		c-0.604-0.798-1.105-1.514,0.038-2.365c-1.745-0.735-3.468-0.997-5.131-1.465c-0.674-0.189-0.989-0.115-1.258,0.616
		c-0.845,2.291-2.248,4.245-3.919,6.012c-2.542,2.689-5.563,4.733-8.767,6.536C0.555,14.756,0.096,14.795,0,15.224
		c0.804,0.89,1.627,1.715,2.343,2.625c0.432,0.55,0.784,0.583,1.332,0.227c0.856-0.557,1.746-1.063,2.906-1.763
		c-0.339,1.46,0.356,1.567,1.342,1.496c1.111-0.08,2.233-0.019,3.35-0.019c2.82,0,2.794-0.001,2.622,2.773
		c-0.039,0.62-0.257,0.727-0.799,0.719c-1.787-0.026-3.575-0.01-5.362-0.01c-2.847,0-2.82,0-2.767,2.89
		c0.013,0.703,0.197,0.908,0.897,0.888c1.697-0.049,3.396-0.016,5.094-0.016c2.963,0,2.914,0,2.944,2.992
		c0.01,0.96-0.354,1.061-1.15,1.049c-2.815-0.04-5.63-0.015-8.445-0.015c-2.265,0-2.192,0.003-2.289,2.309
		c-0.049,1.163,0.336,1.367,1.415,1.36c8.267-0.047,16.534-0.026,24.802-0.026c2.554,0,2.519,0,2.532-2.621
		C30.771,29.281,30.604,29.016,29.749,29.037z M10.263,14.193c2.364-2,4.409-4.028,6.142-6.454c1.734,2.419,3.714,4.454,6.134,6.454
		C18.358,14.193,14.427,14.193,10.263,14.193z"/>
	<g>
		<path fill-rule="evenodd" clip-rule="evenodd" fill="#3F4A5D" d="M137.688,17.925c0-4.826,0.025-9.652-0.021-14.478
			c-0.009-0.984,0.152-1.493,1.28-1.351c0.971,0.123,2.155-0.224,2.891,0.222c0.901,0.545,0.034,1.715,0.04,2.612
			c0.064,9.071,0.021,18.143,0.063,27.214c0.005,1.097-0.137,1.553-1.413,1.5c-2.834-0.116-2.839-0.033-2.84-2.851
			C137.687,26.504,137.688,22.215,137.688,17.925z"/>
		<path fill-rule="evenodd" clip-rule="evenodd" fill="#3F4A5D" d="M136.05,17.252c0,4.022-0.028,8.044,0.022,12.065
			c0.011,0.887-0.241,1.104-1.107,1.097c-2.902-0.02-2.907,0.016-2.907-2.894c-0.001-7.373,0.019-14.746-0.019-22.119
			c-0.005-0.986,0.153-1.385,1.274-1.352c2.741,0.082,2.74,0.017,2.738,2.745C136.047,10.281,136.05,13.767,136.05,17.252z"/>
		<path fill-rule="evenodd" clip-rule="evenodd" fill="#3F4A5D" d="M115.533,5.641c-0.4-0.785-0.682-1.422-1.039-2.013
			c-0.33-0.546-0.194-0.764,0.395-0.926c1.156-0.318,2.308-0.667,3.437-1.069c0.584-0.208,0.734-0.051,0.903,0.515
			c0.341,1.142,0.517,2.589,1.311,3.27c0.82,0.704,2.31,0.207,3.504,0.205c0.747-0.001,0.985,0.197,0.994,0.976
			c0.031,2.633,0.065,2.633-2.513,2.633c-3.347,0-6.694-0.024-10.04,0.018c-0.801,0.01-1.063-0.177-1.06-1.028
			c0.008-2.578-0.035-2.578,2.587-2.579C114.442,5.641,114.873,5.641,115.533,5.641z"/>
		<path fill-rule="evenodd" clip-rule="evenodd" fill="#3F4A5D" d="M118.301,10.795c1.646,0,3.294,0.04,4.939-0.017
			c0.782-0.027,0.952,0.255,0.959,0.988c0.027,2.523,0.056,2.523-2.49,2.523c-2.759,0-5.518-0.027-8.276,0.016
			c-0.814,0.013-1.167-0.125-1.16-1.065c0.02-2.444-0.032-2.445,2.424-2.445C115.898,10.795,117.1,10.795,118.301,10.795z"/>
		<path fill-rule="evenodd" clip-rule="evenodd" fill="#3F4A5D" d="M118.238,15.929c1.648,0,3.296,0.029,4.943-0.014
			c0.713-0.019,1.008,0.132,1.022,0.937c0.044,2.532,0.083,2.532-2.49,2.532c-2.762,0-5.524-0.028-8.285,0.017
			c-0.823,0.013-1.169-0.139-1.161-1.074c0.021-2.398-0.029-2.399,2.363-2.399C115.833,15.929,117.036,15.929,118.238,15.929z"/>
		<path fill-rule="evenodd" clip-rule="evenodd" fill="#3F4A5D" d="M130.367,2.849c-0.73-0.606-1.908-0.083-2.876-0.202
			c-1.074-0.131-1.328,0.279-1.322,1.326c0.034,6.122,0.045,12.244-0.051,18.365c-0.043,2.754-0.405,5.494-1.976,8.005
			c0-2.754-0.024-5.508,0.015-8.262c0.011-0.776-0.144-1.093-1.021-1.078c-3.216,0.056-6.435,0.048-9.651,0.005
			c-0.795-0.011-0.968,0.271-0.959,1.002c0.035,2.859,0.01,5.72,0.016,8.58c0.007,3.421,0.011,3.394,3.468,3.302
			c0.727-0.02,0.962-0.234,0.879-0.917c-0.169-1.383,0.878-0.864,1.515-0.938c0.744-0.087,1.493-0.12,1.283,1.024
			c-0.119,0.65,0.161,0.882,0.811,0.819c0.531-0.051,1.072-0.011,1.608-0.011c1.803,0,1.803,0,2.275-1.538
			c0.241,0.123,0.464,0.278,0.712,0.357c0.964,0.307,1.743,1.715,2.666,1.185c0.875-0.503,1.098-1.868,1.419-2.94
			c1.009-3.374,1.227-6.845,1.243-10.333c0.023-5.05,0.035-10.1-0.035-15.149C130.374,4.561,131.099,3.456,130.367,2.849z
			 M118.287,28.524c-1.319-0.032-1.724-0.392-1.533-1.631c0.073-0.476,0.044-0.975,0.004-1.458c-0.054-0.646,0.102-0.927,0.85-0.938
			c1.944-0.027,1.943-0.071,1.943,2.113C119.458,27.452,120.039,28.566,118.287,28.524z"/>
	</g>
	<g>
		<path fill-rule="evenodd" clip-rule="evenodd" fill="#3F4A5D" d="M84.66,8.305c0.687-0.081,1.268-0.104,1.828-0.225
			c0.64-0.139,0.772-0.63,0.752-1.233c-0.025-0.772-0.59-0.461-0.969-0.542C85.123,6.06,84.554,6.561,84.1,7.63
			c-0.912,2.147-2.535,3.75-4.418,5.096c-0.469,0.335-0.813,0.563-1.245-0.14c-0.569-0.927-1.53-1.478-2.523-2.097
			c1.056-0.704,2.202-1.205,3.05-2.101c0.395-0.417,0.75-0.886,1.043-1.379c0.28-0.47,0.117-0.729-0.479-0.711
			c-0.938,0.029-1.878-0.02-2.815,0.017c-0.575,0.022-0.75-0.188-0.799-0.758c-0.224-2.645-0.243-2.643,2.401-2.643
			c0.179,0,0.358,0,0.537,0c1.908,0,1.947,0,1.963-1.954c0.006-0.768,0.226-1.021,0.997-0.947c1.066,0.101,2.141,0.13,3.213,0.139
			c0.854,0.007,1.081,0.252,0.798,1.14c-0.514,1.611-0.835,1.64,1.196,1.625c1.162-0.009,2.326,0.039,3.485-0.016
			c0.719-0.035,0.924,0.221,0.9,0.913c-0.042,1.205-0.003,2.413,0.007,3.619c0.02,2.187-0.863,3.38-2.978,4.015
			c-0.256,0.077-0.512,0.161-0.774,0.211c-2.21,0.423-2.23,0.405-2.641-1.726C84.917,9.41,84.79,8.893,84.66,8.305z"/>
		<path fill-rule="evenodd" clip-rule="evenodd" fill="#3F4A5D" d="M74.782,31.6c1.139-1.462,2.149-2.963,2.611-4.748
			c0.101-0.387,0.315-0.312,0.6-0.241c0.858,0.214,1.965,0.2,2.464,0.841c0.606,0.779-0.517,1.391-0.813,2.106
			c-0.357,0.858-0.752,1.699-1.123,2.552c-0.243,0.558-0.511,0.841-1.195,0.484C76.558,32.195,75.708,31.953,74.782,31.6z"/>
		<path fill-rule="evenodd" clip-rule="evenodd" fill="#3F4A5D" d="M86.348,31.367c0.012,0.403-0.143,0.564-0.507,0.702
			c-2.188,0.822-2.57,0.641-3.185-1.599c-0.023-0.086-0.062-0.167-0.085-0.253c-0.625-2.261-0.561-2.357,1.719-2.869
			c0.329-0.074,0.591-0.171,0.737,0.256C85.458,28.86,85.906,30.113,86.348,31.367z"/>
		<path fill-rule="evenodd" clip-rule="evenodd" fill="#3F4A5D" d="M94.317,26.923c0.975-0.418,1.464-0.094,1.818,0.918
			c0.25,0.714,0.131,1.731,1.146,2.047c-0.013,0.217-0.025,0.434-0.038,0.65c-0.819,0.707-1.905,0.646-2.854,0.978
			c-0.486,0.169-0.552-0.239-0.656-0.604c-0.231-0.811-0.42-1.652-0.793-2.398c-0.464-0.929-0.176-1.272,0.748-1.377
			C93.902,27.114,94.107,26.998,94.317,26.923z"/>
		<path fill-rule="evenodd" clip-rule="evenodd" fill="#3F4A5D" d="M89.948,27.259c0.698-0.16,0.726,0.459,0.817,0.813
			c0.267,1.036,1.385,2.058,0.842,2.995c-0.327,0.564-1.691,0.538-2.596,0.748c-0.304,0.07-0.321-0.227-0.389-0.427
			c-0.169-0.504-0.341-1.008-0.505-1.515c-0.213-0.657-0.91-1.581-0.546-1.904C88.13,27.471,89.133,27.471,89.948,27.259z"/>
		<path fill-rule="evenodd" clip-rule="evenodd" fill="#3F4A5D" d="M105.24,24.779c0.037-0.913-0.279-1.123-1.139-1.106
			c-2.722,0.051-5.444,0.023-8.167,0.014c-0.369-0.001-0.843,0.151-0.883-0.499c-0.045-0.722,0.449-0.631,0.891-0.631
			c1.696-0.001,3.394-0.053,5.087,0.016c1.25,0.051,0.744-0.825,0.797-1.368c0.058-0.579,0.236-1.255-0.835-1.196
			c-1.557,0.085-3.125,0.061-4.684-0.005c-0.411-0.018-1.238,0.469-1.216-0.474c0.018-0.786,0.757-0.414,1.162-0.426
			c1.561-0.046,3.127-0.083,4.685,0.002c1.148,0.063,0.902-0.674,0.899-1.297c-0.003-0.616,0.265-1.353-0.898-1.286
			c-1.646,0.095-3.302,0.039-4.953,0.011c-0.332-0.005-0.892,0.267-0.919-0.407c-0.031-0.76,0.583-0.516,0.965-0.519
			c2.142-0.02,4.288-0.079,6.426,0.018c1.172,0.053,1.374-0.384,1.37-1.443c-0.005-1.041-0.163-1.438-1.353-1.428
			c-7.364,0.061-14.728,0.024-22.092,0.021c-0.156,0.187-0.139,0.412-0.139,0.633c-0.002,3.921,0.037,7.843-0.025,11.763
			c-0.017,1.083,0.25,1.441,1.387,1.433c5.829-0.044,11.659-0.102,17.484,0.239c0.818,0.048,1.519,0.079,1.514,1.186
			c-0.004,1.056-0.537,1.396-1.507,1.391c-0.649-0.004-1.357-0.145-1.884,0.43c-0.127,0.236-0.119,0.465,0.031,0.688
			c0.195,0.68,0.45,1.35,0.567,2.043c0.098,0.573,0.373,0.752,0.898,0.728c1.47-0.068,2.946-0.089,4.333-0.681
			c1.528-0.652,2.256-1.716,2.24-3.301C105.268,27.811,105.179,26.292,105.24,24.779z M85.383,15.457
			c1.511-0.002,3.022-0.004,4.533,0.002c0.291,0.001,0.645-0.092,0.66,0.41c0.015,0.453-0.157,0.638-0.617,0.624
			c-0.755-0.022-1.511-0.006-2.266-0.005s-1.511,0.003-2.267-0.001c-0.356-0.002-0.717,0.031-0.742-0.508
			C84.658,15.417,85.026,15.458,85.383,15.457z M89.739,23.532c-0.711,0.019-1.424,0.005-2.136,0.005
			c-0.623,0-1.248,0.035-1.867-0.013c-0.406-0.031-1.069,0.307-1.041-0.574c0.024-0.769,0.606-0.495,0.979-0.503
			c1.334-0.03,2.669-0.019,4.004-0.007c0.405,0.003,0.922-0.181,0.899,0.585C90.557,23.705,90.096,23.522,89.739,23.532z
			 M89.964,19.972c-1.554-0.006-3.108-0.004-4.663-0.002c-0.345,0-0.591-0.078-0.617-0.502c-0.034-0.561,0.338-0.522,0.696-0.524
			c0.755-0.003,1.51-0.001,2.265-0.001s1.51,0.006,2.265-0.003c0.384-0.004,0.706-0.001,0.668,0.543
			C90.549,19.913,90.311,19.973,89.964,19.972z"/>
		<path fill-rule="evenodd" clip-rule="evenodd" fill="#3F4A5D" d="M105.067,3.005c0.012-0.69-0.246-0.798-0.851-0.794
			c-3.522,0.023-7.046,0.027-10.568-0.003c-0.722-0.006-0.898,0.263-0.89,0.939c0.033,2.453,0.048,4.907-0.006,7.359
			c-0.018,0.829,0.325,0.941,1.024,0.926c1.739-0.04,3.479-0.013,5.219-0.013c1.739,0,3.479-0.022,5.218,0.012
			c0.61,0.013,0.862-0.122,0.852-0.798C105.028,8.09,105.024,5.547,105.067,3.005z M100.487,7.758
			c-0.25,0.485-1.063,0.094-1.578,0.159c-1.415,0.359-1.794-0.216-1.685-1.552c0.064-0.79,0.306-0.983,1.01-0.902
			c0.393,0.045,0.801-0.035,1.191,0.02c0.387,0.054,1-0.306,1.112,0.325C100.651,6.448,100.758,7.233,100.487,7.758z"/>
	</g>
</g>
</svg>
